# xmcd
#
# Track frame offsets:
#	150
#	13305
#	25104
#	37581
#	53198
#	64839
#	79519
#	96609
#	110283
#	125952
#	139766
#	152564
#	169304
#
# Disc length: 2395 seconds
#
# Revision: 1
# Processed by: cddbd v1.5.2PL0 Copyright (c) Steve Scherf et al.
# Submitted via: audiograbber 1.83.01
#
DISCID=ab09590d
DTITLE=Charley Pride - Music In My Heart
DYEAR=2017
DGENRE=Country
TTITLE0=New Patches
TTITLE1=Make Me One More Memory
TTITLE2=Natural Feeling For You
TTITLE3=All By My Lonesome
TTITLE4=It Wasn't That Funny
TTITLE5=The Same Eyes That Always Drove Me Crazy
TTITLE6=I Learned A Lot
TTITLE7=You're Still In These Crazy Arms Of Mine
TTITLE8=The Way It Was In '51
TTITLE9=I Just Can't Stop Missing You
TTITLE10=You Lied To Me
TTITLE11=Standing In My Way
TTITLE12=Music In My Heart
EXTD=
EXTT0=
EXTT1=
EXTT2=
EXTT3=
EXTT4=
EXTT5=
EXTT6=
EXTT7=
EXTT8=
EXTT9=
EXTT10=
EXTT11=
EXTT12=
PLAYORDER=
